<svg width="106" height="37" viewBox="0 0 106 37" fill="currentColor" xmlns="http://www.w3.org/2000/svg">
  <defs>
    <linearGradient id="hoverGradient">
      <stop offset="0%" stop-color="#EBFF00" />
      <stop offset="100%" stop-color="#FF70D9" />
    </linearGradient>
  </defs>

  <path d="M90.8041 5.38873C87.8967 5.38854 85.0553 6.13537 82.6382 7.53479C80.221 8.93421 78.337 10.9234 77.2244 13.2507C76.1118 15.578 75.8205 18.139 76.3875 20.6097C76.9545 23.0805 78.3542 25.3501 80.4097 27.1315C82.4651 28.9128 85.084 30.126 87.9356 30.6175C90.7858 31.109 93.7414 30.8569 96.4276 29.893C99.1128 28.9289 101.408 27.2964 103.023 25.2018C104.639 23.1072 105.501 20.6447 105.501 18.1255C105.496 14.7489 103.947 11.5117 101.192 9.12397C98.4366 6.73623 94.7006 5.39294 90.8041 5.38873ZM90.8041 25.9593C89.0163 25.9595 87.2687 25.5002 85.7816 24.6395C84.2948 23.7789 83.136 22.5555 82.4516 21.1241C81.7672 19.6927 81.5881 18.1175 81.9367 16.5978C82.2854 15.0782 83.1463 13.6823 84.4105 12.5866C85.6747 11.4909 87.2858 10.7447 89.0393 10.4424C90.7927 10.14 92.6103 10.2951 94.2617 10.888C95.9142 11.4809 97.3261 12.485 98.3197 13.7733C99.3122 15.0616 99.8428 16.5762 99.8428 18.1255C99.8394 20.2021 98.8859 22.1926 97.1909 23.661C95.4971 25.1294 93.2005 25.9559 90.8041 25.9593ZM57.157 5.38873C54.25 5.38873 51.4083 6.13574 48.9913 7.53528C46.5743 8.93482 44.6904 10.924 43.578 13.2514C42.4655 15.5788 42.1746 18.1396 42.7416 20.6103C43.3088 23.081 44.7085 25.3505 46.764 27.1318C48.8195 28.9131 51.4384 30.1261 54.2895 30.6176C57.1406 31.109 60.0958 30.8569 62.7815 29.8929C65.4672 28.9288 67.7626 27.2963 69.3777 25.2017C70.9926 23.1071 71.8547 20.6446 71.8547 18.1255C71.8501 14.7487 70.3001 11.5114 67.5447 9.12362C64.7893 6.73586 61.0537 5.39268 57.157 5.38873ZM57.157 25.9593C55.4911 25.96 53.8576 25.5619 52.4364 24.8088C51.0153 24.0557 49.8619 22.977 49.1035 21.6917C48.3453 20.4064 48.0115 18.9645 48.1392 17.5253C48.2668 16.086 48.8508 14.7052 49.8269 13.5354C50.803 12.3657 52.133 11.4524 53.6702 10.8963C55.2075 10.3402 56.8921 10.1631 58.5381 10.3844C60.1843 10.6057 61.7277 11.2168 62.9983 12.1503C64.2689 13.0839 65.2172 14.3035 65.7384 15.6745H57.157V20.5766H65.7384C65.1414 22.141 63.9913 23.503 62.4509 24.4691C60.9106 25.4353 59.0584 25.9566 57.157 25.9593Z" />
  <path d="M 30.23 28.376 C 29.304 28.506 28.577 28.428 28.141 28.23 C 27.628 27.997 27.32 27.558 27.174 27.315 C 27.058 27.121 27.059 27.099 27.069 27.101 C 27.014 27.08 26.966 27.08 26.512 27.297 C 24.797 27.963 23.632 30.092 23.209 31.108 C 23.082 31.411 22.773 31.596 22.446 31.565 C 22.119 31.534 21.851 31.294 21.783 30.973 C 21.661 30.374 21.294 29.3 20.539 28.922 C 20.141 28.723 19.994 28.783 19.611 28.839 C 19.414 28.869 19.062 28.894 18.756 28.783 C 18.484 28.684 18.151 28.4 17.899 28.065 C 17.112 26.824 17.075 25.319 16.489 24.029 C 16.308 23.475 16.349 22.751 16.59 22.253 C 16.822 21.774 17.264 21.261 17.72 20.908 C 18.174 20.557 18.789 20.245 19.348 20.116 C 19.917 19.984 20.647 20.047 21.21 20.291 C 21.907 20.665 22.49 20.709 23.094 20.847 C 23.712 20.987 24.402 21.329 24.989 22.086 C 25.124 22.288 25.254 22.483 25.379 22.654 C 25.433 22.268 25.463 21.729 25.463 20.962 C 25.463 18.689 26.042 16.92 26.718 15.831 C 27.435 14.676 28.581 13.98 29.273 14.057 C 29.608 14.094 30.347 13.913 31.046 13.575 C 31.388 13.409 31.602 13.271 31.748 13.106 C 31.754 13.099 31.76 13.093 31.764 13.088 C 31.593 12.801 30.997 12.592 30.31 12.254 C 29.928 12.066 29.508 11.854 29.192 11.625 C 28.851 11.378 28.44 10.86 28.44 10.387 C 28.44 9.778 28.78 8.979 28.919 8.331 C 28.988 8.01 29.011 7.797 28.972 7.573 C 28.934 7.357 28.919 7.323 28.74 7.189 C 27.539 6.288 24.718 4.512 22.582 4.769 C 21.498 4.851 20.929 5.072 20.539 5.366 C 20.213 5.611 20.178 5.707 20.178 5.974 C 20.178 6.086 20.708 6.419 21.319 7.083 C 21.63 7.42 21.988 7.912 22.078 8.371 C 22.127 8.626 22.087 9.032 21.951 9.297 C 21.829 9.535 21.548 9.811 21.272 9.997 C 20.386 10.543 18.522 11.262 16.927 11.608 C 16.121 11.782 15.278 11.88 14.667 11.809 C 14.335 11.771 13.929 11.644 13.68 11.46 C 13.403 11.255 13.143 10.771 13.143 10.387 C 13.143 9.589 13.065 8.288 13.118 7.169 C 13.145 6.604 13.215 6.015 13.354 5.592 C 13.429 5.362 13.574 5.076 13.732 4.903 C 13.909 4.708 14.307 4.508 14.604 4.505 C 14.605 4.492 14.62 4.462 14.667 4.399 C 14.805 4.22 14.92 3.981 15.057 3.677 C 15.193 3.373 15.337 3.025 15.494 2.755 C 15.579 2.61 15.718 2.417 15.852 2.301 C 16.014 2.16 16.408 2.06 16.686 2.051 C 16.855 2.105 17.422 1.943 18.129 1.774 C 14.938 1.942 12.059 2.974 9.562 4.686 C 7.076 6.391 5.113 8.661 3.839 11.402 C 4.598 11.568 5.412 11.77 6.101 11.99 C 6.596 12.149 7.078 12.336 7.418 12.523 C 7.794 12.731 8.159 13.236 8.277 13.672 C 8.26 14.712 7.187 17.965 8.185 19.779 C 9.189 21.605 12.663 22.741 13.159 23.284 C 12.99 23.34 13.38 23.165 14.005 23.588 C 14.551 23.957 15.137 24.865 15.358 26.532 C 15.444 27.841 15.953 28.471 16.64 29.009 C 17.313 29.536 18.125 29.815 18.827 30.137 C 19.515 30.455 20.265 30.858 20.78 31.274 C 21.05 31.491 21.332 31.789 21.481 32.061 C 21.648 32.365 21.668 32.891 21.564 33.27 C 21.408 33.51 21.12 33.79 20.903 33.872 C 20.719 33.941 20.464 33.983 20.26 33.999 C 19.87 34.03 19.403 34.013 18.96 34.019 C 18.069 34.032 17.378 33.961 17.193 34.509 C 17.113 34.622 17.059 34.772 16.981 35.034 C 16.967 35.082 16.95 35.146 16.933 35.219 C 17.171 35.25 17.414 35.279 17.589 35.294 C 18.077 35.337 18.555 35.357 19.054 35.357 C 24.459 35.357 29.143 32.939 32.229 28.992 C 31.737 28.448 31.154 28.148 30.23 28.376 Z M 23.627 1.65 L 23.835 0.881 C 27.684 1.941 31.139 4.272 33.518 7.335 C 35.896 10.396 37.358 14.37 37.358 18.554 C 37.358 20.569 37.019 22.567 36.412 24.376 C 36.109 25.282 35.724 26.183 35.288 27.017 C 34.851 27.853 33.842 29.327 33.842 29.327 C 33.835 29.34 33.517 29.154 33.198 28.965 L 33.177 28.98 L 33.78 29.426 C 30.461 33.856 25.024 36.857 19.054 36.857 C 17.991 36.857 16.031 36.598 16.031 36.598 C 16.014 36.597 16.038 36.176 16.061 35.781 C 16.056 35.779 16.05 35.776 16.044 35.774 L 15.903 36.587 C 11.649 35.823 7.779 33.552 5.099 30.398 C 2.42 27.245 0.751 23.024 0.751 18.554 C 0.751 17.349 0.872 16.135 1.096 14.996 C 1.321 13.856 2.049 11.807 2.049 11.807 C 2.053 11.789 2.417 11.883 2.779 11.98 L 2.785 11.952 L 2.09 11.669 C 3.451 8.362 5.805 5.444 8.714 3.449 C 11.621 1.455 15.257 0.25 19.054 0.25 C 19.873 0.25 20.703 0.306 21.493 0.411 C 22.283 0.516 23.738 0.861 23.738 0.861 C 23.751 0.863 23.684 1.243 23.617 1.617 C 23.62 1.628 23.624 1.639 23.627 1.65 Z M 15.932 33.698 C 16.671 32.809 17.982 32.533 18.939 32.519 C 19.315 32.514 19.653 32.522 19.928 32.515 C 19.901 32.492 19.872 32.468 19.839 32.442 C 19.431 32.113 18.846 31.797 18.199 31.499 C 17.567 31.205 16.582 30.868 15.715 30.189 C 14.862 29.521 14.088 28.354 13.866 26.686 C 13.779 25.375 13.492 25.051 13.165 24.83 C 12.917 24.663 12.435 24.539 11.959 24.184 C 11.838 23.906 8.125 22.783 6.87 20.502 C 5.612 18.215 6.658 14.976 6.767 13.877 C 6.75 13.868 6.725 13.855 6.692 13.836 C 6.441 13.697 6.096 13.564 5.644 13.419 C 4.922 13.188 4.06 12.98 3.265 12.813 C 3.152 13.127 3.026 13.487 2.953 13.73 C 2.799 14.244 2.673 14.752 2.568 15.286 C 2.357 16.355 2.251 17.423 2.251 18.554 C 2.251 22.748 3.72 26.457 6.242 29.427 C 8.625 32.232 11.788 34.211 15.503 34.986 C 15.603 34.569 15.765 33.976 15.932 33.698 Z M 22.087 2.928 C 21.545 3.063 20.927 3.071 20.564 2.96 C 19.837 2.509 17.82 3.36 16.789 3.511 C 16.684 3.694 16.571 3.968 16.425 4.291 C 16.28 4.616 16.087 5.012 15.859 5.311 C 15.647 5.587 15.227 5.907 14.803 5.986 C 14.797 6.004 14.79 6.027 14.779 6.059 C 14.687 6.342 14.641 6.728 14.617 7.241 C 14.569 8.239 14.638 9.448 14.643 10.29 C 14.679 10.3 14.734 10.307 14.839 10.319 C 15.28 10.37 15.875 10.301 16.609 10.142 C 18.094 9.82 19.721 9.206 20.477 8.725 C 20.556 8.702 20.6 8.696 20.624 8.696 C 20.616 8.689 20.609 8.677 20.605 8.658 C 20.577 8.514 20.472 8.377 20.216 8.098 C 19.693 7.53 18.678 6.682 18.678 5.973 C 18.678 5.419 19.007 4.642 19.636 4.168 C 20.2 3.743 21.175 3.399 22.452 3.275 C 25.039 3.122 28.378 5.042 29.641 5.989 C 30.078 6.317 30.371 6.873 30.449 7.312 C 30.525 7.742 30.471 8.248 30.386 8.645 C 30.225 9.395 29.968 10.009 29.942 10.338 C 29.959 10.338 29.996 10.355 30.072 10.41 C 30.291 10.57 30.596 10.723 30.972 10.908 C 31.722 11.277 32.714 11.831 33.147 12.516 C 33.249 12.779 33.309 13.17 33.248 13.415 C 33.19 13.646 33.023 13.929 32.87 14.101 C 32.593 14.414 32.126 14.719 31.699 14.925 C 30.858 15.332 29.697 15.613 29.108 15.547 C 28.876 15.522 28.534 15.749 27.993 16.622 C 27.411 17.56 26.963 18.923 26.963 20.962 C 26.963 22.074 26.891 22.877 26.768 23.374 C 26.699 23.655 26.572 23.951 26.443 24.121 C 26.271 24.349 25.86 24.561 25.597 24.561 C 25.176 24.561 24.68 24.17 24.428 23.872 C 24.189 23.589 23.946 23.226 23.741 22.918 C 23.507 22.443 23.273 22.425 22.762 22.309 C 22.237 22.19 21.485 22.081 20.539 21.633 C 20.281 21.467 20.061 21.491 19.686 21.577 C 19.302 21.666 18.981 21.829 18.639 22.094 C 18.299 22.357 18.087 22.602 17.94 22.906 C 17.803 23.189 17.741 23.274 17.868 23.439 C 18.514 25.024 18.477 26.394 19.128 27.205 C 19.234 27.384 19.222 27.357 19.268 27.373 C 19.28 27.378 19.242 27.378 19.391 27.356 C 19.702 27.31 20.376 27.163 21.21 27.581 C 22.426 28.189 22.26 28.516 22.604 29.106 C 23.356 27.948 23.851 26.897 25.914 25.921 C 26.618 25.635 27.257 25.56 27.636 25.712 C 28.085 25.892 28.339 26.342 28.46 26.544 C 28.584 26.75 28.604 26.793 28.761 26.864 C 28.996 26.971 29.282 27.021 29.999 26.894 C 31.249 26.777 32.305 27.197 33.073 27.815 C 33.162 27.683 33.246 27.557 33.308 27.457 C 33.541 27.084 33.754 26.714 33.958 26.323 C 34.367 25.54 34.706 24.748 34.99 23.899 C 35.56 22.2 35.858 20.443 35.858 18.554 C 35.858 14.629 34.572 11.137 32.333 8.255 C 30.142 5.434 27.192 3.372 23.669 2.39 C 23.328 2.519 22.494 2.827 22.087 2.928 Z M 23.396 0.895 C 23.396 0.895 23.396 0.895 23.396 0.895 C 23.396 0.895 23.396 0.895 23.396 0.895 Z M 6.767 13.871 C 6.768 13.871 6.768 13.87 6.768 13.869 C 6.765 13.869 6.765 13.869 6.767 13.871 Z M 23.492 2.34 C 23.492 2.34 23.492 2.34 23.492 2.34 C 23.492 2.34 23.492 2.34 23.492 2.34 Z" />
</svg>
